<svg xmlns="http://www.w3.org/2000/svg" width="128" height="80.319" version="1.0" viewBox="0 0 3387 2125" shape-rendering="geometricPrecision" text-rendering="geometricPrecision" image-rendering="optimizeQuality" fill-rule="evenodd" clip-rule="evenodd"><defs><style>.fil0{fill:#fefefe;fill-rule:nonzero}</style></defs><g id="Camada_x0020_1"><path class="fil0" d="M3114 178H803v-14h2311l7 7-7 7zm0-14h7v7l-7-7zm-7 1448V171h14v1441l-7 7-7-7zm14 0v7h-7l7-7zm-2318-8h2311v15H803l-7-7 7-8zm0 15h-7v-7l7 7zm7-1448v1441h-14V171l7-7 7 7zm-14 0v-7h7l-7 7z"/><path class="fil0" d="M1974 256H803v-14h1171l7 7-7 7zm0-14h7v7l-7-7zm-8 1370V249h15v1363l-7 7-8-7zm15 0v7h-7l7-7zm-1178-8h1171v15H803l-7-7 7-8zm0 15h-7v-7l7 7zm7-1370v1363h-14V249l7-7 7 7zm-14 0v-7h7l-7 7z"/><path class="fil0" d="M1283 472H803v-14h480l7 7-7 7zm0-14h7v7l-7-7zm-7 1154V465h14v1147l-7 7-7-7zm14 0v7h-7l7-7zm-487-8h480v15H803l-7-7 7-8zm0 15h-7v-7l7 7zm7-1154v1147h-14V465l7-7 7 7zm-14 0v-7h7l-7 7zm646 1480l-8-8c5-7 8-16 8-25 0-20-13-38-39-38-25 0-38 18-38 38s13 38 38 38c8 0 14-2 20-4l9 9 10-10zm-61-33c0-13 7-24 22-24 16 0 23 11 23 24 0 5-1 10-4 13l-10-9-10 9 9 9c-2 1-5 2-8 2-15 0-22-11-22-24zm121-36v44c0 12-7 16-17 16s-16-4-16-16v-44h-16v45c0 22 16 29 32 29s32-7 32-29v-45h-15zm36 73l5-14h34l5 14h16l-30-73h-16l-30 73h16zm20-53c1-2 1-3 2-6 1 3 1 4 2 6l10 26h-24l10-26zm64 53v-48l34 48h14v-73h-15v47l-34-47h-15v73h16zm57-73v14h23v59h15v-59h23v-14h-61zm70 0v73h16v-73h-16zm31 0v73h28c26 0 38-16 38-37s-12-36-38-36h-28zm50 36c0 15-8 23-22 23h-12v-46h12c14 0 22 8 22 23zm33 37l5-14h34l5 14h16l-29-73h-17l-30 73h16zm20-53c1-2 2-3 2-6 1 3 1 4 2 6l10 26h-24l10-26zm48-20v73h28c26 0 38-16 38-37s-12-36-38-36h-28zm50 36c0 15-8 23-22 23h-12v-46h12c14 0 22 8 22 23zm28-36v73h52v-14h-37v-16h33v-14h-33v-16h36v-13h-51zm87 0v73h28c26 0 38-16 38-37s-12-36-38-36h-28zm50 36c0 15-8 23-22 23h-12v-46h12c14 0 22 8 22 23zm28-36v73h52v-14h-37v-16h33v-14h-33v-16h36v-13h-51zm87 0v73h16v-73h-16zm25 0v14h23v59h15v-59h23v-14h-61zm70 0v73h52v-14h-37v-16h33v-14h-33v-16h36v-13h-51zm80 73v-38c0-3 0-7-1-10l34 48h15v-73h-15v47l-34-47h-15v73h16zm61-54c0 26 39 21 39 34 0 5-5 7-13 7-9 0-18-2-26-7v14c7 5 17 7 27 7 15 0 28-5 28-21 0-26-39-22-39-34 0-5 3-7 11-7 9 0 17 2 23 6v-14c-6-4-15-6-24-6-14 0-26 7-26 21zm-1406-764h-97l-17 55h-76l108-295h67l109 295h-76l-18-55zm-80-55h63l-31-103-32 103zm514 110V891h106c38 0 67 7 87 20 19 14 29 35 29 61 0 15-3 29-10 39-7 11-18 19-31 24 15 4 27 12 35 23s13 25 13 40c0 29-10 51-28 66-18 14-45 22-81 22h-120zm71-125v70h47c12 0 22-3 29-9s11-14 11-24c0-25-13-37-37-37h-50zm0-48h37c16 0 27-3 33-8 7-6 10-14 10-25 0-12-3-21-10-26-8-6-19-9-35-9h-35v68zm1081 73c-1 20-7 39-17 54-10 16-24 28-43 37-18 9-39 13-62 13-39 0-70-13-92-38s-34-61-34-107v-15c0-29 5-54 16-76 10-21 24-38 43-50s41-18 66-18c36 0 64 10 86 29s34 45 37 78h-71c0-18-5-31-13-39-9-8-22-12-39-12-18 0-31 7-39 20s-13 34-13 64v20c0 32 4 54 12 68s21 20 41 20c16 0 28-4 37-11 9-8 13-20 14-37h71zM614 213l5-41h48v14h-33l-1 16c1-1 3-1 5-2s4-1 6-1c8 0 14 3 19 7 4 5 6 12 6 20 0 6-1 10-3 14-3 5-6 8-10 10s-9 4-15 4c-5 0-10-1-14-4-5-2-8-5-11-8-2-4-3-8-3-13h19c0 3 1 6 2 7 2 2 4 3 7 3 6 0 10-5 10-14s-4-13-12-13c-4 0-8 2-10 4l-15-3zm65-26c0-5 2-9 5-12s8-5 13-5c6 0 10 2 13 5 4 3 5 7 5 12v4c0 5-1 9-5 12-3 4-7 5-13 5-5 0-10-1-13-4s-5-8-5-13v-4zm12 4c0 2 1 4 2 5s2 2 4 2c4 0 6-3 6-8v-3c0-2 0-3-1-5-1-1-3-1-5-1s-3 0-4 1c-1 2-2 3-2 5v4zm27 42c0-5 1-9 4-13 4-3 8-4 14-4 5 0 9 1 13 4 3 3 5 8 5 13v4c0 5-2 9-5 12s-8 5-13 5c-6 0-10-2-13-5-4-3-5-7-5-12v-4zm12 4c0 2 0 3 1 4 2 2 3 2 5 2 3 0 5-1 6-5v-5c0-2-1-4-2-5s-3-2-4-2c-2 0-4 1-5 2s-1 2-1 4v5zm-29 9l-9-4 40-63 8 4-39 63zm356 1511h-56v-12l26-28c6-7 9-13 9-17s0-6-2-8c-1-2-4-3-7-3-2 0-5 2-7 4-1 2-2 5-2 9h-19c0-5 1-10 4-14 2-4 6-7 10-10 5-2 9-3 15-3 9 0 15 2 20 6s7 10 7 17c0 3 0 7-2 10-1 3-3 6-5 9-3 3-7 8-12 13l-11 12h32v15zm66-33c0 11-3 19-8 25s-11 9-20 9-16-3-21-9-8-14-8-25v-15c0-11 3-19 8-25s12-9 21-9 15 3 20 9 8 14 8 25v15zm-19-17c0-6-1-11-2-13-2-3-4-5-7-5-4 0-6 2-7 4-2 3-3 7-3 12v21c0 6 1 11 2 13 2 3 4 5 8 5 3 0 5-2 7-5 1-2 2-7 2-12v-20zm29-15c0-5 1-9 4-13 4-3 8-4 14-4 5 0 9 1 13 4 3 3 5 8 5 13v4c0 5-2 9-5 12-4 3-8 5-13 5-6 0-10-2-13-5-4-3-5-7-5-12v-4zm12 4c0 2 0 3 1 5 1 1 3 1 5 1 4 0 5-2 5-7v-3c0-2 0-4-1-5s-3-2-4-2c-2 0-4 1-5 2s-1 3-1 5v4zm26 41c0-5 2-9 5-12s8-5 13-5 10 2 13 5 5 7 5 12v4c0 5-2 9-5 12s-7 5-13 5c-5 0-10-2-13-5s-5-7-5-12v-4zm12 4c0 2 1 4 2 5s2 2 4 2c4 0 6-2 6-5v-6c0-2-1-4-2-5s-2-2-4-2-3 1-4 2-2 3-2 5v4zm-29 10l-9-5 40-63 9 5-40 63zM589 403h-19v-59l-18 5v-14l35-13h2v81zm25-39l5-42h48v15h-33l-1 16c1-1 3-2 5-2 2-1 4-1 6-1 8 0 14 2 19 7 4 5 6 11 6 20 0 5-1 10-3 14-3 4-6 8-10 10s-9 3-15 3c-5 0-10-1-14-3-5-2-8-5-11-8-2-4-3-8-3-13h19c0 3 1 5 2 7 2 2 4 3 7 3 6 0 10-5 10-14s-4-13-12-13c-4 0-8 1-10 4l-15-3zm65-26c0-5 2-9 5-12s8-5 13-5c6 0 10 2 13 5 4 3 5 7 5 12v4c0 5-1 9-5 12-3 3-7 5-13 5-5 0-10-2-13-5s-5-7-5-12v-4zm12 4c0 2 1 4 2 5s2 2 4 2c4 0 6-3 6-8v-3c0-2 0-4-1-5-2-1-3-2-5-2s-3 1-4 2-2 3-2 5v4zm27 41c0-5 1-9 4-12 4-3 8-4 14-4 5 0 9 1 13 4 3 3 5 7 5 13v4c0 5-2 9-5 12s-8 4-13 4c-6 0-10-1-13-4-4-3-5-7-5-13v-4zm12 5c0 1 0 3 1 4 2 1 3 2 5 2 3 0 5-2 6-5v-6c0-2-1-3-2-4-1-2-3-2-4-2-2 0-4 0-5 1-1 2-1 3-1 5v5zm-29 9l-9-4 40-63 8 4-39 63zm922 1312h9c7 0 10-4 10-11 0-2-1-5-2-6-2-2-4-3-8-3-2 0-4 1-6 2-2 2-3 4-3 6h-18c0-4 1-8 3-12 2-3 6-5 10-7s9-3 14-3c9 0 16 2 21 6s8 10 8 17c0 3-1 7-3 10-3 3-6 5-10 7 5 2 8 4 10 7 3 4 4 7 4 12 0 7-3 13-8 18-6 4-13 6-22 6-5 0-10-1-15-3-4-2-8-5-10-8-3-4-4-8-4-13h19c0 3 1 5 3 7s5 3 7 3c4 0 6-1 8-3s3-4 3-7c0-4-1-7-3-9s-5-2-8-2h-9v-14zm105 15c0 11-3 19-8 25s-12 9-20 9c-9 0-16-3-21-9s-8-14-8-25v-15c0-11 3-19 8-25s11-9 20-9 16 3 21 9 8 14 8 25v15zm-19-17c0-6-1-11-2-13-2-3-4-5-8-5-3 0-5 2-7 4-1 3-2 7-2 12v21c0 6 1 11 2 13 2 3 4 5 8 5 3 0 5-2 7-5 1-2 2-7 2-12v-20zm28-15c0-5 2-9 5-13 4-3 8-4 13-4 6 0 10 1 14 4 3 3 4 8 4 13v4c0 5-1 9-4 12-4 3-8 5-13 5-6 0-10-2-14-5-3-3-5-7-5-12v-4zm12 4c0 2 1 3 2 5 1 1 3 1 5 1 3 0 5-2 5-7v-3c0-2 0-4-1-5s-3-2-5-2c-1 0-3 1-4 2s-2 3-2 5v4zm27 41c0-5 2-9 5-12s7-5 13-5c5 0 10 2 13 5s5 7 5 12v4c0 5-2 9-5 12s-7 5-13 5c-5 0-10-2-13-5s-5-7-5-12v-4zm12 4c0 2 0 4 2 5 1 1 2 2 4 2 4 0 6-2 6-5v-6c0-2-1-4-2-5s-2-2-4-2-3 1-4 2-2 3-2 5v4zm-29 10l-9-5 40-63 9 5-40 63zm648-11l7-63h73v22h-49l-3 25c2-1 5-2 8-3s7-2 10-2c12 0 22 4 28 11 7 8 10 18 10 31 0 8-1 15-5 22-3 6-8 11-15 15-6 3-14 5-23 5-8 0-15-2-22-5s-12-7-16-13-6-12-6-19h29c1 4 2 8 5 11 2 2 6 4 10 4 10 0 15-7 15-22 0-13-6-20-18-20-7 0-12 2-15 7l-23-6zm186 10c0 17-4 30-11 39-8 9-18 14-32 14s-25-5-32-14c-8-9-12-22-12-39v-22c0-17 4-30 12-39 7-10 18-14 32-14s24 4 32 14c7 9 11 22 11 39v22zm-29-26c0-9-1-16-3-20-2-5-6-7-11-7s-9 2-11 6-4 11-4 19v32c0 9 1 16 4 20 2 5 6 7 11 7s8-2 11-7c2-4 3-10 3-19v-31zm44-23c0-8 3-14 8-19s12-7 20-7c9 0 15 2 20 7s8 11 8 19v6c0 8-3 14-8 19s-11 7-20 7c-8 0-15-2-20-7s-8-11-8-19v-6zm19 6c0 3 1 6 2 8 2 1 4 2 7 2 6 0 9-4 9-11v-5c0-3-1-6-2-8-2-2-4-3-7-3s-5 1-7 3c-1 2-2 5-2 8v6zm41 64c0-8 2-14 7-19s12-7 20-7c9 0 16 2 21 7s7 11 7 19v6c0 8-2 14-7 19s-12 7-21 7c-8 0-15-2-20-7s-7-11-7-19v-6zm18 6c0 3 1 5 3 7s4 3 6 3c6 0 9-2 9-7l1-9c0-3-1-6-3-8-2-1-4-2-7-2-2 0-5 0-6 2-2 2-3 4-3 7v7zm-44 15l-14-7 61-97 14 7-61 97zM518 938c0 6-1 12-4 16-3 5-7 9-13 11 6 3 11 7 14 12 4 5 6 11 6 18 0 11-4 20-12 27-8 6-18 9-32 9-13 0-24-3-32-9-7-7-11-16-11-27 0-6 1-12 5-17 3-6 8-10 14-13-5-2-9-6-12-11-3-4-5-10-5-16 0-11 4-19 11-25 8-7 18-10 30-10 13 0 23 3 30 10 7 6 11 14 11 25zm-26 55c0-5-2-9-4-12-3-3-6-4-11-4-4 0-8 1-10 4-3 3-4 7-4 12s1 9 4 12c2 3 6 4 10 4 5 0 8-1 11-4 2-3 4-7 4-12zm-15-67c-4 0-7 1-9 3-2 3-3 6-3 11 0 4 1 8 3 11 2 2 5 4 9 4s7-2 9-4c2-3 3-7 3-11 0-5-1-8-3-11-2-2-5-3-9-3zm145 53c0 17-4 30-11 39-8 9-18 13-32 13s-25-4-32-13c-8-10-12-23-12-39v-23c0-17 4-30 12-39 7-9 18-14 32-14s24 5 32 14c7 9 11 22 11 39v23zm-29-27c0-9-1-15-3-20-2-4-6-6-11-6s-9 2-11 6-4 10-4 18v32c0 10 1 16 4 21 2 4 6 6 11 6s8-2 11-6c2-4 3-11 3-20v-31zm44-23c0-8 3-14 8-19 5-4 12-7 20-7 9 0 15 3 20 7 5 5 8 11 8 19v7c0 7-3 14-8 18-5 5-11 7-20 7-8 0-15-2-20-7-5-4-8-11-8-19v-6zm19 7c0 3 1 5 2 7 2 2 4 3 7 3 6 0 9-4 9-12v-5c0-3-1-5-2-7-2-2-4-3-7-3s-5 1-7 3c-1 1-2 4-2 7v7zm41 63c0-8 2-14 7-19 5-4 12-7 20-7 9 0 16 3 21 7 5 5 7 11 7 20v6c0 7-2 14-7 18-5 5-12 7-21 7-8 0-15-2-20-7-5-4-7-11-7-19v-6zm18 7c0 2 1 5 3 7s4 3 6 3c6 0 9-3 9-8l1-9c0-3-1-5-3-7s-4-3-7-3c-2 0-5 1-6 3-2 1-3 4-3 7v7zm-44 14l-14-6 61-98 14 7-61 97zm-364 122l15-54h20l-25 74h-20l-25-74h20l15 54zm78 6h-24l-4 14h-20l28-74h16l28 74h-19l-5-14zm-20-14h16l-8-25-8 25zm67 14h31v14h-49v-74h18v60zm98-22c0 8-1 14-4 20-2 5-6 10-11 13s-11 4-17 4-12-1-17-4-9-7-11-13c-3-5-4-11-5-18v-5c0-7 2-13 4-19 3-5 7-10 12-13s10-4 17-4c6 0 12 1 17 4s8 8 11 13c3 6 4 12 4 19v3zm-18-3c0-7-1-13-4-16-2-4-6-6-10-6-9 0-14 7-14 20v6c0 7 1 12 3 16 3 4 6 6 11 6 4 0 8-2 10-5 3-4 4-10 4-17v-4zm55 13h-10v26h-18v-74h30c8 0 15 2 20 6s8 9 8 16c0 5-1 10-3 13-3 4-6 6-10 8l15 30v1h-19l-13-26zm-10-14h12c3 0 6-1 7-3 2-1 3-4 3-7s-1-6-3-8c-1-1-4-2-7-2h-12v20zm104 14h-10v26h-18v-74h30c8 0 15 2 20 6s8 9 8 16c0 5-1 10-3 13-3 4-6 6-10 8l15 30v1h-19l-13-26zm-10-14h12c3 0 6-1 7-3 2-1 3-4 3-7s-1-6-3-8c-1-1-4-2-7-2h-12v20zm84 20c0-2-1-4-2-6-2-2-4-3-7-4-4-2-7-3-10-4-2-2-5-3-7-5s-4-4-5-7c-1-2-1-5-1-8 0-6 2-11 6-15 3-3 9-5 15-6v-11h8v11c6 1 11 4 15 8 3 4 5 9 5 16h-17c0-4-1-6-2-8s-3-3-6-3c-2 0-4 0-5 2-1 1-2 3-2 6 0 2 1 4 2 6 2 1 4 3 7 4s6 3 9 4c3 2 5 3 7 5s4 4 5 6c1 3 2 6 2 9 0 6-2 11-6 14-3 4-9 6-15 7v10h-8v-10c-7-1-13-4-17-8s-6-10-6-17h17c0 4 1 7 3 9s4 3 7 3c2 0 4-1 6-2 1-1 2-3 2-6z"/></g></svg>